<?xml version="1.0" encoding="utf-8" standalone="no"?>
<!DOCTYPE svg PUBLIC "-//W3C//DTD SVG 1.1//EN"
  "http://www.w3.org/Graphics/SVG/1.1/DTD/svg11.dtd">
<svg xmlns:xlink="http://www.w3.org/1999/xlink" width="1144.739375pt" height="550.398125pt" viewBox="0 0 1144.739375 550.398125" xmlns="http://www.w3.org/2000/svg" version="1.1">
 <metadata>
  <rdf:RDF xmlns:dc="http://purl.org/dc/elements/1.1/" xmlns:cc="http://creativecommons.org/ns#" xmlns:rdf="http://www.w3.org/1999/02/22-rdf-syntax-ns#">
   <cc:Work>
    <dc:type rdf:resource="http://purl.org/dc/dcmitype/StillImage"/>
    <dc:date>2026-04-13T20:02:15.472771</dc:date>
    <dc:format>image/svg+xml</dc:format>
    <dc:creator>
     <cc:Agent>
      <dc:title>Matplotlib v3.10.8, https://matplotlib.org/</dc:title>
     </cc:Agent>
    </dc:creator>
   </cc:Work>
  </rdf:RDF>
 </metadata>
 <defs>
  <style type="text/css">*{stroke-linejoin: round; stroke-linecap: butt}</style>
 </defs>
 <g id="figure_1">
  <g id="patch_1">
   <path d="M 0 550.398125 
L 1144.739375 550.398125 
L 1144.739375 0 
L 0 0 
z
" style="fill: #ffffff"/>
  </g>
  <g id="axes_1">
   <g id="patch_2">
    <path d="M 40.369375 526.52 
L 571.884375 526.52 
L 571.884375 124 
L 40.369375 124 
z
" style="fill: #ffffff"/>
   </g>
   <g id="patch_3">
    <path d="M 64.529148 526.52 
L 145.061723 526.52 
L 145.061723 526.52 
L 64.529148 526.52 
z
" clip-path="url(#pabeb1a9d36)" style="fill: #ff7675; opacity: 0.8; stroke: #000000; stroke-linejoin: miter"/>
   </g>
   <g id="patch_4">
    <path d="M 198.750107 526.52 
L 279.282683 526.52 
L 279.282683 526.52 
L 198.750107 526.52 
z
" clip-path="url(#pabeb1a9d36)" style="fill: #fdcb6e; opacity: 0.8; stroke: #000000; stroke-linejoin: miter"/>
   </g>
   <g id="patch_5">
    <path d="M 332.971067 526.52 
L 413.503643 526.52 
L 413.503643 258.173333 
L 332.971067 258.173333 
z
" clip-path="url(#pabeb1a9d36)" style="fill: #74b9ff; opacity: 0.8; stroke: #000000; stroke-linejoin: miter"/>
   </g>
   <g id="patch_6">
    <path d="M 467.192027 526.52 
L 547.724602 526.52 
L 547.724602 526.52 
L 467.192027 526.52 
z
" clip-path="url(#pabeb1a9d36)" style="fill: #a29bfe; opacity: 0.8; stroke: #000000; stroke-linejoin: miter"/>
   </g>
   <g id="matplotlib.axis_1">
    <g id="xtick_1">
     <g id="line2d_1">
      <defs>
       <path id="m2967b7a2ba" d="M 0 0 
L 0 3.5 
" style="stroke: #000000; stroke-width: 0.8"/>
      </defs>
      <g>
       <use xlink:href="#m2967b7a2ba" x="104.795436" y="526.52" style="stroke: #000000; stroke-width: 0.8"/>
      </g>
     </g>
     <g id="text_1">
      <!-- CPU -->
      <g transform="translate(94.629811 541.118437) scale(0.1 -0.1)">
       <defs>
        <path id="DejaVuSans-43" d="M 4122 4306 
L 4122 3641 
Q 3803 3938 3442 4084 
Q 3081 4231 2675 4231 
Q 1875 4231 1450 3742 
Q 1025 3253 1025 2328 
Q 1025 1406 1450 917 
Q 1875 428 2675 428 
Q 3081 428 3442 575 
Q 3803 722 4122 1019 
L 4122 359 
Q 3791 134 3420 21 
Q 3050 -91 2638 -91 
Q 1578 -91 968 557 
Q 359 1206 359 2328 
Q 359 3453 968 4101 
Q 1578 4750 2638 4750 
Q 3056 4750 3426 4639 
Q 3797 4528 4122 4306 
z
" transform="scale(0.015625)"/>
        <path id="DejaVuSans-50" d="M 1259 4147 
L 1259 2394 
L 2053 2394 
Q 2494 2394 2734 2622 
Q 2975 2850 2975 3272 
Q 2975 3691 2734 3919 
Q 2494 4147 2053 4147 
L 1259 4147 
z
M 628 4666 
L 2053 4666 
Q 2838 4666 3239 4311 
Q 3641 3956 3641 3272 
Q 3641 2581 3239 2228 
Q 2838 1875 2053 1875 
L 1259 1875 
L 1259 0 
L 628 0 
L 628 4666 
z
" transform="scale(0.015625)"/>
        <path id="DejaVuSans-55" d="M 556 4666 
L 1191 4666 
L 1191 1831 
Q 1191 1081 1462 751 
Q 1734 422 2344 422 
Q 2950 422 3222 751 
Q 3494 1081 3494 1831 
L 3494 4666 
L 4128 4666 
L 4128 1753 
Q 4128 841 3676 375 
Q 3225 -91 2344 -91 
Q 1459 -91 1007 375 
Q 556 841 556 1753 
L 556 4666 
z
" transform="scale(0.015625)"/>
       </defs>
       <use xlink:href="#DejaVuSans-43"/>
       <use xlink:href="#DejaVuSans-50" transform="translate(69.824219 0)"/>
       <use xlink:href="#DejaVuSans-55" transform="translate(130.126953 0)"/>
      </g>
     </g>
    </g>
    <g id="xtick_2">
     <g id="line2d_2">
      <g>
       <use xlink:href="#m2967b7a2ba" x="239.016395" y="526.52" style="stroke: #000000; stroke-width: 0.8"/>
      </g>
     </g>
     <g id="text_2">
      <!-- Memory -->
      <g transform="translate(218.681239 541.118437) scale(0.1 -0.1)">
       <defs>
        <path id="DejaVuSans-4d" d="M 628 4666 
L 1569 4666 
L 2759 1491 
L 3956 4666 
L 4897 4666 
L 4897 0 
L 4281 0 
L 4281 4097 
L 3078 897 
L 2444 897 
L 1241 4097 
L 1241 0 
L 628 0 
L 628 4666 
z
" transform="scale(0.015625)"/>
        <path id="DejaVuSans-65" d="M 3597 1894 
L 3597 1613 
L 953 1613 
Q 991 1019 1311 708 
Q 1631 397 2203 397 
Q 2534 397 2845 478 
Q 3156 559 3463 722 
L 3463 178 
Q 3153 47 2828 -22 
Q 2503 -91 2169 -91 
Q 1331 -91 842 396 
Q 353 884 353 1716 
Q 353 2575 817 3079 
Q 1281 3584 2069 3584 
Q 2775 3584 3186 3129 
Q 3597 2675 3597 1894 
z
M 3022 2063 
Q 3016 2534 2758 2815 
Q 2500 3097 2075 3097 
Q 1594 3097 1305 2825 
Q 1016 2553 972 2059 
L 3022 2063 
z
" transform="scale(0.015625)"/>
        <path id="DejaVuSans-6d" d="M 3328 2828 
Q 3544 3216 3844 3400 
Q 4144 3584 4550 3584 
Q 5097 3584 5394 3201 
Q 5691 2819 5691 2113 
L 5691 0 
L 5113 0 
L 5113 2094 
Q 5113 2597 4934 2840 
Q 4756 3084 4391 3084 
Q 3944 3084 3684 2787 
Q 3425 2491 3425 1978 
L 3425 0 
L 2847 0 
L 2847 2094 
Q 2847 2600 2669 2842 
Q 2491 3084 2119 3084 
Q 1678 3084 1418 2786 
Q 1159 2488 1159 1978 
L 1159 0 
L 581 0 
L 581 3500 
L 1159 3500 
L 1159 2956 
Q 1356 3278 1631 3431 
Q 1906 3584 2284 3584 
Q 2666 3584 2933 3390 
Q 3200 3197 3328 2828 
z
" transform="scale(0.015625)"/>
        <path id="DejaVuSans-6f" d="M 1959 3097 
Q 1497 3097 1228 2736 
Q 959 2375 959 1747 
Q 959 1119 1226 758 
Q 1494 397 1959 397 
Q 2419 397 2687 759 
Q 2956 1122 2956 1747 
Q 2956 2369 2687 2733 
Q 2419 3097 1959 3097 
z
M 1959 3584 
Q 2709 3584 3137 3096 
Q 3566 2609 3566 1747 
Q 3566 888 3137 398 
Q 2709 -91 1959 -91 
Q 1206 -91 779 398 
Q 353 888 353 1747 
Q 353 2609 779 3096 
Q 1206 3584 1959 3584 
z
" transform="scale(0.015625)"/>
        <path id="DejaVuSans-72" d="M 2631 2963 
Q 2534 3019 2420 3045 
Q 2306 3072 2169 3072 
Q 1681 3072 1420 2755 
Q 1159 2438 1159 1844 
L 1159 0 
L 581 0 
L 581 3500 
L 1159 3500 
L 1159 2956 
Q 1341 3275 1631 3429 
Q 1922 3584 2338 3584 
Q 2397 3584 2469 3576 
Q 2541 3569 2628 3553 
L 2631 2963 
z
" transform="scale(0.015625)"/>
        <path id="DejaVuSans-79" d="M 2059 -325 
Q 1816 -950 1584 -1140 
Q 1353 -1331 966 -1331 
L 506 -1331 
L 506 -850 
L 844 -850 
Q 1081 -850 1212 -737 
Q 1344 -625 1503 -206 
L 1606 56 
L 191 3500 
L 800 3500 
L 1894 763 
L 2988 3500 
L 3597 3500 
L 2059 -325 
z
" transform="scale(0.015625)"/>
       </defs>
       <use xlink:href="#DejaVuSans-4d"/>
       <use xlink:href="#DejaVuSans-65" transform="translate(86.279297 0)"/>
       <use xlink:href="#DejaVuSans-6d" transform="translate(147.802734 0)"/>
       <use xlink:href="#DejaVuSans-6f" transform="translate(245.214844 0)"/>
       <use xlink:href="#DejaVuSans-72" transform="translate(306.396484 0)"/>
       <use xlink:href="#DejaVuSans-79" transform="translate(347.509766 0)"/>
      </g>
     </g>
    </g>
    <g id="xtick_3">
     <g id="line2d_3">
      <g>
       <use xlink:href="#m2967b7a2ba" x="373.237355" y="526.52" style="stroke: #000000; stroke-width: 0.8"/>
      </g>
     </g>
     <g id="text_3">
      <!-- RPS -->
      <g transform="translate(363.574074 541.118437) scale(0.1 -0.1)">
       <defs>
        <path id="DejaVuSans-52" d="M 2841 2188 
Q 3044 2119 3236 1894 
Q 3428 1669 3622 1275 
L 4263 0 
L 3584 0 
L 2988 1197 
Q 2756 1666 2539 1819 
Q 2322 1972 1947 1972 
L 1259 1972 
L 1259 0 
L 628 0 
L 628 4666 
L 2053 4666 
Q 2853 4666 3247 4331 
Q 3641 3997 3641 3322 
Q 3641 2881 3436 2590 
Q 3231 2300 2841 2188 
z
M 1259 4147 
L 1259 2491 
L 2053 2491 
Q 2509 2491 2742 2702 
Q 2975 2913 2975 3322 
Q 2975 3731 2742 3939 
Q 2509 4147 2053 4147 
L 1259 4147 
z
" transform="scale(0.015625)"/>
        <path id="DejaVuSans-53" d="M 3425 4513 
L 3425 3897 
Q 3066 4069 2747 4153 
Q 2428 4238 2131 4238 
Q 1616 4238 1336 4038 
Q 1056 3838 1056 3469 
Q 1056 3159 1242 3001 
Q 1428 2844 1947 2747 
L 2328 2669 
Q 3034 2534 3370 2195 
Q 3706 1856 3706 1288 
Q 3706 609 3251 259 
Q 2797 -91 1919 -91 
Q 1588 -91 1214 -16 
Q 841 59 441 206 
L 441 856 
Q 825 641 1194 531 
Q 1563 422 1919 422 
Q 2459 422 2753 634 
Q 3047 847 3047 1241 
Q 3047 1584 2836 1778 
Q 2625 1972 2144 2069 
L 1759 2144 
Q 1053 2284 737 2584 
Q 422 2884 422 3419 
Q 422 4038 858 4394 
Q 1294 4750 2059 4750 
Q 2388 4750 2728 4690 
Q 3069 4631 3425 4513 
z
" transform="scale(0.015625)"/>
       </defs>
       <use xlink:href="#DejaVuSans-52"/>
       <use xlink:href="#DejaVuSans-50" transform="translate(69.482422 0)"/>
       <use xlink:href="#DejaVuSans-53" transform="translate(129.785156 0)"/>
      </g>
     </g>
    </g>
    <g id="xtick_4">
     <g id="line2d_4">
      <g>
       <use xlink:href="#m2967b7a2ba" x="507.458314" y="526.52" style="stroke: #000000; stroke-width: 0.8"/>
      </g>
     </g>
     <g id="text_4">
      <!-- Error -->
      <g transform="translate(495.273158 541.118437) scale(0.1 -0.1)">
       <defs>
        <path id="DejaVuSans-45" d="M 628 4666 
L 3578 4666 
L 3578 4134 
L 1259 4134 
L 1259 2753 
L 3481 2753 
L 3481 2222 
L 1259 2222 
L 1259 531 
L 3634 531 
L 3634 0 
L 628 0 
L 628 4666 
z
" transform="scale(0.015625)"/>
       </defs>
       <use xlink:href="#DejaVuSans-45"/>
       <use xlink:href="#DejaVuSans-72" transform="translate(63.183594 0)"/>
       <use xlink:href="#DejaVuSans-72" transform="translate(102.546875 0)"/>
       <use xlink:href="#DejaVuSans-6f" transform="translate(141.410156 0)"/>
       <use xlink:href="#DejaVuSans-72" transform="translate(202.591797 0)"/>
      </g>
     </g>
    </g>
   </g>
   <g id="matplotlib.axis_2">
    <g id="ytick_1">
     <g id="line2d_5">
      <path d="M 40.369375 526.52 
L 571.884375 526.52 
" clip-path="url(#pabeb1a9d36)" style="fill: none; stroke-dasharray: 0.8,1.32; stroke-dashoffset: 0; stroke: #b0b0b0; stroke-opacity: 0.6; stroke-width: 0.8"/>
     </g>
     <g id="line2d_6">
      <defs>
       <path id="m2381c1dd00" d="M 0 0 
L -3.5 0 
" style="stroke: #000000; stroke-width: 0.8"/>
      </defs>
      <g>
       <use xlink:href="#m2381c1dd00" x="40.369375" y="526.52" style="stroke: #000000; stroke-width: 0.8"/>
      </g>
     </g>
     <g id="text_5">
      <!-- 0 -->
      <g transform="translate(27.006875 530.319219) scale(0.1 -0.1)">
       <defs>
        <path id="DejaVuSans-30" d="M 2034 4250 
Q 1547 4250 1301 3770 
Q 1056 3291 1056 2328 
Q 1056 1369 1301 889 
Q 1547 409 2034 409 
Q 2525 409 2770 889 
Q 3016 1369 3016 2328 
Q 3016 3291 2770 3770 
Q 2525 4250 2034 4250 
z
M 2034 4750 
Q 2819 4750 3233 4129 
Q 3647 3509 3647 2328 
Q 3647 1150 3233 529 
Q 2819 -91 2034 -91 
Q 1250 -91 836 529 
Q 422 1150 422 2328 
Q 422 3509 836 4129 
Q 1250 4750 2034 4750 
z
" transform="scale(0.015625)"/>
       </defs>
       <use xlink:href="#DejaVuSans-30"/>
      </g>
     </g>
    </g>
    <g id="ytick_2">
     <g id="line2d_7">
      <path d="M 40.369375 459.433333 
L 571.884375 459.433333 
" clip-path="url(#pabeb1a9d36)" style="fill: none; stroke-dasharray: 0.8,1.32; stroke-dashoffset: 0; stroke: #b0b0b0; stroke-opacity: 0.6; stroke-width: 0.8"/>
     </g>
     <g id="line2d_8">
      <g>
       <use xlink:href="#m2381c1dd00" x="40.369375" y="459.433333" style="stroke: #000000; stroke-width: 0.8"/>
      </g>
     </g>
     <g id="text_6">
      <!-- 1 -->
      <g transform="translate(27.006875 463.232552) scale(0.1 -0.1)">
       <defs>
        <path id="DejaVuSans-31" d="M 794 531 
L 1825 531 
L 1825 4091 
L 703 3866 
L 703 4441 
L 1819 4666 
L 2450 4666 
L 2450 531 
L 3481 531 
L 3481 0 
L 794 0 
L 794 531 
z
" transform="scale(0.015625)"/>
       </defs>
       <use xlink:href="#DejaVuSans-31"/>
      </g>
     </g>
    </g>
    <g id="ytick_3">
     <g id="line2d_9">
      <path d="M 40.369375 392.346667 
L 571.884375 392.346667 
" clip-path="url(#pabeb1a9d36)" style="fill: none; stroke-dasharray: 0.8,1.32; stroke-dashoffset: 0; stroke: #b0b0b0; stroke-opacity: 0.6; stroke-width: 0.8"/>
     </g>
     <g id="line2d_10">
      <g>
       <use xlink:href="#m2381c1dd00" x="40.369375" y="392.346667" style="stroke: #000000; stroke-width: 0.8"/>
      </g>
     </g>
     <g id="text_7">
      <!-- 2 -->
      <g transform="translate(27.006875 396.145885) scale(0.1 -0.1)">
       <defs>
        <path id="DejaVuSans-32" d="M 1228 531 
L 3431 531 
L 3431 0 
L 469 0 
L 469 531 
Q 828 903 1448 1529 
Q 2069 2156 2228 2338 
Q 2531 2678 2651 2914 
Q 2772 3150 2772 3378 
Q 2772 3750 2511 3984 
Q 2250 4219 1831 4219 
Q 1534 4219 1204 4116 
Q 875 4013 500 3803 
L 500 4441 
Q 881 4594 1212 4672 
Q 1544 4750 1819 4750 
Q 2544 4750 2975 4387 
Q 3406 4025 3406 3419 
Q 3406 3131 3298 2873 
Q 3191 2616 2906 2266 
Q 2828 2175 2409 1742 
Q 1991 1309 1228 531 
z
" transform="scale(0.015625)"/>
       </defs>
       <use xlink:href="#DejaVuSans-32"/>
      </g>
     </g>
    </g>
    <g id="ytick_4">
     <g id="line2d_11">
      <path d="M 40.369375 325.26 
L 571.884375 325.26 
" clip-path="url(#pabeb1a9d36)" style="fill: none; stroke-dasharray: 0.8,1.32; stroke-dashoffset: 0; stroke: #b0b0b0; stroke-opacity: 0.6; stroke-width: 0.8"/>
     </g>
     <g id="line2d_12">
      <g>
       <use xlink:href="#m2381c1dd00" x="40.369375" y="325.26" style="stroke: #000000; stroke-width: 0.8"/>
      </g>
     </g>
     <g id="text_8">
      <!-- 3 -->
      <g transform="translate(27.006875 329.059219) scale(0.1 -0.1)">
       <defs>
        <path id="DejaVuSans-33" d="M 2597 2516 
Q 3050 2419 3304 2112 
Q 3559 1806 3559 1356 
Q 3559 666 3084 287 
Q 2609 -91 1734 -91 
Q 1441 -91 1130 -33 
Q 819 25 488 141 
L 488 750 
Q 750 597 1062 519 
Q 1375 441 1716 441 
Q 2309 441 2620 675 
Q 2931 909 2931 1356 
Q 2931 1769 2642 2001 
Q 2353 2234 1838 2234 
L 1294 2234 
L 1294 2753 
L 1863 2753 
Q 2328 2753 2575 2939 
Q 2822 3125 2822 3475 
Q 2822 3834 2567 4026 
Q 2313 4219 1838 4219 
Q 1578 4219 1281 4162 
Q 984 4106 628 3988 
L 628 4550 
Q 988 4650 1302 4700 
Q 1616 4750 1894 4750 
Q 2613 4750 3031 4423 
Q 3450 4097 3450 3541 
Q 3450 3153 3228 2886 
Q 3006 2619 2597 2516 
z
" transform="scale(0.015625)"/>
       </defs>
       <use xlink:href="#DejaVuSans-33"/>
      </g>
     </g>
    </g>
    <g id="ytick_5">
     <g id="line2d_13">
      <path d="M 40.369375 258.173333 
L 571.884375 258.173333 
" clip-path="url(#pabeb1a9d36)" style="fill: none; stroke-dasharray: 0.8,1.32; stroke-dashoffset: 0; stroke: #b0b0b0; stroke-opacity: 0.6; stroke-width: 0.8"/>
     </g>
     <g id="line2d_14">
      <g>
       <use xlink:href="#m2381c1dd00" x="40.369375" y="258.173333" style="stroke: #000000; stroke-width: 0.8"/>
      </g>
     </g>
     <g id="text_9">
      <!-- 4 -->
      <g transform="translate(27.006875 261.972552) scale(0.1 -0.1)">
       <defs>
        <path id="DejaVuSans-34" d="M 2419 4116 
L 825 1625 
L 2419 1625 
L 2419 4116 
z
M 2253 4666 
L 3047 4666 
L 3047 1625 
L 3713 1625 
L 3713 1100 
L 3047 1100 
L 3047 0 
L 2419 0 
L 2419 1100 
L 313 1100 
L 313 1709 
L 2253 4666 
z
" transform="scale(0.015625)"/>
       </defs>
       <use xlink:href="#DejaVuSans-34"/>
      </g>
     </g>
    </g>
    <g id="ytick_6">
     <g id="line2d_15">
      <path d="M 40.369375 191.086667 
L 571.884375 191.086667 
" clip-path="url(#pabeb1a9d36)" style="fill: none; stroke-dasharray: 0.8,1.32; stroke-dashoffset: 0; stroke: #b0b0b0; stroke-opacity: 0.6; stroke-width: 0.8"/>
     </g>
     <g id="line2d_16">
      <g>
       <use xlink:href="#m2381c1dd00" x="40.369375" y="191.086667" style="stroke: #000000; stroke-width: 0.8"/>
      </g>
     </g>
     <g id="text_10">
      <!-- 5 -->
      <g transform="translate(27.006875 194.885885) scale(0.1 -0.1)">
       <defs>
        <path id="DejaVuSans-35" d="M 691 4666 
L 3169 4666 
L 3169 4134 
L 1269 4134 
L 1269 2991 
Q 1406 3038 1543 3061 
Q 1681 3084 1819 3084 
Q 2600 3084 3056 2656 
Q 3513 2228 3513 1497 
Q 3513 744 3044 326 
Q 2575 -91 1722 -91 
Q 1428 -91 1123 -41 
Q 819 9 494 109 
L 494 744 
Q 775 591 1075 516 
Q 1375 441 1709 441 
Q 2250 441 2565 725 
Q 2881 1009 2881 1497 
Q 2881 1984 2565 2268 
Q 2250 2553 1709 2553 
Q 1456 2553 1204 2497 
Q 953 2441 691 2322 
L 691 4666 
z
" transform="scale(0.015625)"/>
       </defs>
       <use xlink:href="#DejaVuSans-35"/>
      </g>
     </g>
    </g>
    <g id="ytick_7">
     <g id="line2d_17">
      <path d="M 40.369375 124 
L 571.884375 124 
" clip-path="url(#pabeb1a9d36)" style="fill: none; stroke-dasharray: 0.8,1.32; stroke-dashoffset: 0; stroke: #b0b0b0; stroke-opacity: 0.6; stroke-width: 0.8"/>
     </g>
     <g id="line2d_18">
      <g>
       <use xlink:href="#m2381c1dd00" x="40.369375" y="124" style="stroke: #000000; stroke-width: 0.8"/>
      </g>
     </g>
     <g id="text_11">
      <!-- 6 -->
      <g transform="translate(27.006875 127.799219) scale(0.1 -0.1)">
       <defs>
        <path id="DejaVuSans-36" d="M 2113 2584 
Q 1688 2584 1439 2293 
Q 1191 2003 1191 1497 
Q 1191 994 1439 701 
Q 1688 409 2113 409 
Q 2538 409 2786 701 
Q 3034 994 3034 1497 
Q 3034 2003 2786 2293 
Q 2538 2584 2113 2584 
z
M 3366 4563 
L 3366 3988 
Q 3128 4100 2886 4159 
Q 2644 4219 2406 4219 
Q 1781 4219 1451 3797 
Q 1122 3375 1075 2522 
Q 1259 2794 1537 2939 
Q 1816 3084 2150 3084 
Q 2853 3084 3261 2657 
Q 3669 2231 3669 1497 
Q 3669 778 3244 343 
Q 2819 -91 2113 -91 
Q 1303 -91 875 529 
Q 447 1150 447 2328 
Q 447 3434 972 4092 
Q 1497 4750 2381 4750 
Q 2619 4750 2861 4703 
Q 3103 4656 3366 4563 
z
" transform="scale(0.015625)"/>
       </defs>
       <use xlink:href="#DejaVuSans-36"/>
      </g>
     </g>
    </g>
    <g id="text_12">
     <!-- Tổng số Pod được tạo thêm -->
     <g transform="translate(19.985938 433.150781) rotate(-90) scale(0.14 -0.14)">
      <defs>
       <path id="DejaVuSans-Bold-54" d="M 31 4666 
L 4331 4666 
L 4331 3756 
L 2784 3756 
L 2784 0 
L 1581 0 
L 1581 3756 
L 31 3756 
L 31 4666 
z
" transform="scale(0.015625)"/>
       <path id="DejaVuSans-Bold-1ed5" d="M 2203 2784 
Q 1831 2784 1636 2517 
Q 1441 2250 1441 1747 
Q 1441 1244 1636 976 
Q 1831 709 2203 709 
Q 2569 709 2762 976 
Q 2956 1244 2956 1747 
Q 2956 2250 2762 2517 
Q 2569 2784 2203 2784 
z
M 2203 3584 
Q 3106 3584 3614 3096 
Q 4122 2609 4122 1747 
Q 4122 884 3614 396 
Q 3106 -91 2203 -91 
Q 1297 -91 786 396 
Q 275 884 275 1747 
Q 275 2609 786 3096 
Q 1297 3584 2203 3584 
z
M 3846 4392 
L 3337 4392 
L 3337 4545 
Q 3337 4636 3409 4751 
Q 3459 4832 3631 4967 
L 3731 5045 
Q 3793 5095 3843 5154 
Q 3918 5236 3921 5304 
Q 3921 5423 3784 5476 
Q 3665 5523 3462 5523 
Q 3349 5523 3211 5495 
Q 3074 5467 2802 5357 
L 2802 5720 
Q 3052 5789 3213 5817 
Q 3374 5845 3527 5845 
Q 3937 5845 4162 5698 
Q 4387 5551 4387 5273 
Q 4387 5129 4318 5017 
Q 4246 4895 4093 4782 
L 3993 4707 
Q 3899 4639 3871 4595 
Q 3846 4557 3846 4517 
L 3846 4392 
z
M 1727 4769 
L 2689 4769 
L 3386 3944 
L 2830 3944 
L 2208 4447 
L 1586 3944 
L 1030 3944 
L 1727 4769 
z
" transform="scale(0.015625)"/>
       <path id="DejaVuSans-Bold-6e" d="M 4056 2131 
L 4056 0 
L 2931 0 
L 2931 347 
L 2931 1631 
Q 2931 2084 2911 2256 
Q 2891 2428 2841 2509 
Q 2775 2619 2662 2680 
Q 2550 2741 2406 2741 
Q 2056 2741 1856 2470 
Q 1656 2200 1656 1722 
L 1656 0 
L 538 0 
L 538 3500 
L 1656 3500 
L 1656 2988 
Q 1909 3294 2193 3439 
Q 2478 3584 2822 3584 
Q 3428 3584 3742 3212 
Q 4056 2841 4056 2131 
z
" transform="scale(0.015625)"/>
       <path id="DejaVuSans-Bold-67" d="M 2919 594 
Q 2688 288 2409 144 
Q 2131 0 1766 0 
Q 1125 0 706 504 
Q 288 1009 288 1791 
Q 288 2575 706 3076 
Q 1125 3578 1766 3578 
Q 2131 3578 2409 3434 
Q 2688 3291 2919 2981 
L 2919 3500 
L 4044 3500 
L 4044 353 
Q 4044 -491 3511 -936 
Q 2978 -1381 1966 -1381 
Q 1638 -1381 1331 -1331 
Q 1025 -1281 716 -1178 
L 716 -306 
Q 1009 -475 1290 -558 
Q 1572 -641 1856 -641 
Q 2406 -641 2662 -400 
Q 2919 -159 2919 353 
L 2919 594 
z
M 2181 2772 
Q 1834 2772 1640 2515 
Q 1447 2259 1447 1791 
Q 1447 1309 1634 1061 
Q 1822 813 2181 813 
Q 2531 813 2725 1069 
Q 2919 1325 2919 1791 
Q 2919 2259 2725 2515 
Q 2531 2772 2181 2772 
z
" transform="scale(0.015625)"/>
       <path id="DejaVuSans-Bold-20" transform="scale(0.015625)"/>
       <path id="DejaVuSans-Bold-73" d="M 3272 3391 
L 3272 2541 
Q 2913 2691 2578 2766 
Q 2244 2841 1947 2841 
Q 1628 2841 1473 2761 
Q 1319 2681 1319 2516 
Q 1319 2381 1436 2309 
Q 1553 2238 1856 2203 
L 2053 2175 
Q 2913 2066 3209 1816 
Q 3506 1566 3506 1031 
Q 3506 472 3093 190 
Q 2681 -91 1863 -91 
Q 1516 -91 1145 -36 
Q 775 19 384 128 
L 384 978 
Q 719 816 1070 734 
Q 1422 653 1784 653 
Q 2113 653 2278 743 
Q 2444 834 2444 1013 
Q 2444 1163 2330 1236 
Q 2216 1309 1875 1350 
L 1678 1375 
Q 931 1469 631 1722 
Q 331 1975 331 2491 
Q 331 3047 712 3315 
Q 1094 3584 1881 3584 
Q 2191 3584 2531 3537 
Q 2872 3491 3272 3391 
z
" transform="scale(0.015625)"/>
       <path id="DejaVuSans-Bold-1ed1" d="M 2203 2784 
Q 1831 2784 1636 2517 
Q 1441 2250 1441 1747 
Q 1441 1244 1636 976 
Q 1831 709 2203 709 
Q 2569 709 2762 976 
Q 2956 1244 2956 1747 
Q 2956 2250 2762 2517 
Q 2569 2784 2203 2784 
z
M 2203 3584 
Q 3106 3584 3614 3096 
Q 4122 2609 4122 1747 
Q 4122 884 3614 396 
Q 3106 -91 2203 -91 
Q 1297 -91 786 396 
Q 275 884 275 1747 
Q 275 2609 786 3096 
Q 1297 3584 2203 3584 
z
M 1703 4769 
L 2665 4769 
L 3362 3944 
L 2806 3944 
L 2184 4447 
L 1562 3944 
L 1006 3944 
L 1703 4769 
z
M 3463 5601 
L 4348 5601 
L 3457 4776 
L 2845 4776 
L 3463 5601 
z
" transform="scale(0.015625)"/>
       <path id="DejaVuSans-Bold-50" d="M 588 4666 
L 2584 4666 
Q 3475 4666 3951 4270 
Q 4428 3875 4428 3144 
Q 4428 2409 3951 2014 
Q 3475 1619 2584 1619 
L 1791 1619 
L 1791 0 
L 588 0 
L 588 4666 
z
M 1791 3794 
L 1791 2491 
L 2456 2491 
Q 2806 2491 2997 2661 
Q 3188 2831 3188 3144 
Q 3188 3456 2997 3625 
Q 2806 3794 2456 3794 
L 1791 3794 
z
" transform="scale(0.015625)"/>
       <path id="DejaVuSans-Bold-6f" d="M 2203 2784 
Q 1831 2784 1636 2517 
Q 1441 2250 1441 1747 
Q 1441 1244 1636 976 
Q 1831 709 2203 709 
Q 2569 709 2762 976 
Q 2956 1244 2956 1747 
Q 2956 2250 2762 2517 
Q 2569 2784 2203 2784 
z
M 2203 3584 
Q 3106 3584 3614 3096 
Q 4122 2609 4122 1747 
Q 4122 884 3614 396 
Q 3106 -91 2203 -91 
Q 1297 -91 786 396 
Q 275 884 275 1747 
Q 275 2609 786 3096 
Q 1297 3584 2203 3584 
z
" transform="scale(0.015625)"/>
       <path id="DejaVuSans-Bold-64" d="M 2919 2988 
L 2919 4863 
L 4044 4863 
L 4044 0 
L 2919 0 
L 2919 506 
Q 2688 197 2409 53 
Q 2131 -91 1766 -91 
Q 1119 -91 703 423 
Q 288 938 288 1747 
Q 288 2556 703 3070 
Q 1119 3584 1766 3584 
Q 2128 3584 2408 3439 
Q 2688 3294 2919 2988 
z
M 2181 722 
Q 2541 722 2730 984 
Q 2919 1247 2919 1747 
Q 2919 2247 2730 2509 
Q 2541 2772 2181 2772 
Q 1825 2772 1636 2509 
Q 1447 2247 1447 1747 
Q 1447 1247 1636 984 
Q 1825 722 2181 722 
z
" transform="scale(0.015625)"/>
       <path id="DejaVuSans-Bold-111" d="M 2919 2988 
L 2919 3866 
L 1900 3866 
L 1900 4506 
L 2919 4506 
L 2919 4863 
L 4044 4863 
L 4044 4506 
L 4525 4506 
L 4525 3866 
L 4044 3866 
L 4044 0 
L 2919 0 
L 2919 506 
Q 2688 197 2409 53 
Q 2131 -91 1766 -91 
Q 1119 -91 703 423 
Q 288 938 288 1747 
Q 288 2556 703 3070 
Q 1119 3584 1766 3584 
Q 2128 3584 2408 3439 
Q 2688 3294 2919 2988 
z
M 2181 722 
Q 2541 722 2730 984 
Q 2919 1247 2919 1747 
Q 2919 2247 2730 2509 
Q 2541 2772 2181 2772 
Q 1825 2772 1636 2509 
Q 1447 2247 1447 1747 
Q 1447 1247 1636 984 
Q 1825 722 2181 722 
z
" transform="scale(0.015625)"/>
       <path id="DejaVuSans-Bold-1b0" d="M 3441 2909 
L 3441 3350 
Q 3651 3194 3765 3134 
Q 3879 3075 3960 3075 
Q 4082 3075 4158 3167 
Q 4235 3259 4235 3413 
Q 4235 3534 4211 3654 
Q 4188 3775 4138 3900 
L 4626 3900 
Q 4660 3728 4677 3581 
Q 4694 3434 4694 3306 
Q 4694 2947 4550 2755 
Q 4407 2563 4138 2563 
Q 3973 2563 3802 2647 
Q 3632 2731 3441 2909 
z
M 484 1363 
L 484 3500 
L 1609 3500 
L 1609 3150 
Q 1609 2866 1606 2436 
Q 1603 2006 1603 1863 
Q 1603 1441 1625 1255 
Q 1647 1069 1700 984 
Q 1768 875 1879 815 
Q 1990 756 2134 756 
Q 2484 756 2684 1025 
Q 2884 1294 2884 1772 
L 2884 3500 
L 4003 3500 
L 4003 0 
L 2884 0 
L 2884 506 
Q 2631 200 2348 54 
Q 2065 -91 1725 -91 
Q 1118 -91 801 281 
Q 484 653 484 1363 
z
" transform="scale(0.015625)"/>
       <path id="DejaVuSans-Bold-1ee3" d="M 1634 -447 
L 2753 -447 
L 2753 -1359 
L 1634 -1359 
L 1634 -447 
z
M 3281 2909 
L 3281 3350 
Q 3491 3194 3605 3134 
Q 3719 3075 3800 3075 
Q 3922 3075 3998 3167 
Q 4075 3259 4075 3413 
Q 4075 3534 4051 3654 
Q 4028 3775 3978 3900 
L 4466 3900 
Q 4500 3728 4517 3581 
Q 4534 3434 4534 3306 
Q 4534 2947 4390 2755 
Q 4247 2563 3978 2563 
Q 3813 2563 3642 2647 
Q 3472 2731 3281 2909 
z
M 2227 2784 
Q 1855 2784 1660 2517 
Q 1465 2250 1465 1747 
Q 1465 1244 1660 976 
Q 1855 709 2227 709 
Q 2593 709 2786 976 
Q 2980 1244 2980 1747 
Q 2980 2250 2786 2517 
Q 2593 2784 2227 2784 
z
M 2227 3584 
Q 3130 3584 3638 3096 
Q 4146 2609 4146 1747 
Q 4146 884 3638 396 
Q 3130 -91 2227 -91 
Q 1321 -91 810 396 
Q 299 884 299 1747 
Q 299 2609 810 3096 
Q 1321 3584 2227 3584 
z
" transform="scale(0.015625)"/>
       <path id="DejaVuSans-Bold-63" d="M 3366 3391 
L 3366 2478 
Q 3138 2634 2908 2709 
Q 2678 2784 2431 2784 
Q 1963 2784 1702 2511 
Q 1441 2238 1441 1747 
Q 1441 1256 1702 982 
Q 1963 709 2431 709 
Q 2694 709 2930 787 
Q 3166 866 3366 1019 
L 3366 103 
Q 3103 6 2833 -42 
Q 2563 -91 2291 -91 
Q 1344 -91 809 395 
Q 275 881 275 1747 
Q 275 2613 809 3098 
Q 1344 3584 2291 3584 
Q 2566 3584 2833 3536 
Q 3100 3488 3366 3391 
z
" transform="scale(0.015625)"/>
       <path id="DejaVuSans-Bold-74" d="M 1759 4494 
L 1759 3500 
L 2913 3500 
L 2913 2700 
L 1759 2700 
L 1759 1216 
Q 1759 972 1856 886 
Q 1953 800 2241 800 
L 2816 800 
L 2816 0 
L 1856 0 
Q 1194 0 917 276 
Q 641 553 641 1216 
L 641 2700 
L 84 2700 
L 84 3500 
L 641 3500 
L 641 4494 
L 1759 4494 
z
" transform="scale(0.015625)"/>
       <path id="DejaVuSans-Bold-1ea1" d="M 2106 1575 
Q 1756 1575 1579 1456 
Q 1403 1338 1403 1106 
Q 1403 894 1545 773 
Q 1688 653 1941 653 
Q 2256 653 2472 879 
Q 2688 1106 2688 1447 
L 2688 1575 
L 2106 1575 
z
M 3816 1997 
L 3816 0 
L 2688 0 
L 2688 519 
Q 2463 200 2181 54 
Q 1900 -91 1497 -91 
Q 953 -91 614 226 
Q 275 544 275 1050 
Q 275 1666 698 1953 
Q 1122 2241 2028 2241 
L 2688 2241 
L 2688 2328 
Q 2688 2594 2478 2717 
Q 2269 2841 1825 2841 
Q 1466 2841 1156 2769 
Q 847 2697 581 2553 
L 581 3406 
Q 941 3494 1303 3539 
Q 1666 3584 2028 3584 
Q 2975 3584 3395 3211 
Q 3816 2838 3816 1997 
z
M 1450 -447 
L 2569 -447 
L 2569 -1359 
L 1450 -1359 
L 1450 -447 
z
" transform="scale(0.015625)"/>
       <path id="DejaVuSans-Bold-68" d="M 4056 2131 
L 4056 0 
L 2931 0 
L 2931 347 
L 2931 1625 
Q 2931 2084 2911 2256 
Q 2891 2428 2841 2509 
Q 2775 2619 2662 2680 
Q 2550 2741 2406 2741 
Q 2056 2741 1856 2470 
Q 1656 2200 1656 1722 
L 1656 0 
L 538 0 
L 538 4863 
L 1656 4863 
L 1656 2988 
Q 1909 3294 2193 3439 
Q 2478 3584 2822 3584 
Q 3428 3584 3742 3212 
Q 4056 2841 4056 2131 
z
" transform="scale(0.015625)"/>
       <path id="DejaVuSans-Bold-ea" d="M 4031 1759 
L 4031 1441 
L 1416 1441 
Q 1456 1047 1700 850 
Q 1944 653 2381 653 
Q 2734 653 3104 758 
Q 3475 863 3866 1075 
L 3866 213 
Q 3469 63 3072 -14 
Q 2675 -91 2278 -91 
Q 1328 -91 801 392 
Q 275 875 275 1747 
Q 275 2603 792 3093 
Q 1309 3584 2216 3584 
Q 3041 3584 3536 3087 
Q 4031 2591 4031 1759 
z
M 2881 2131 
Q 2881 2450 2695 2645 
Q 2509 2841 2209 2841 
Q 1884 2841 1681 2658 
Q 1478 2475 1428 2131 
L 2881 2131 
z
M 1902 5119 
L 2658 5119 
L 3458 3944 
L 2902 3944 
L 2280 4647 
L 1658 3944 
L 1102 3944 
L 1902 5119 
z
" transform="scale(0.015625)"/>
       <path id="DejaVuSans-Bold-6d" d="M 3781 2919 
Q 3994 3244 4286 3414 
Q 4578 3584 4928 3584 
Q 5531 3584 5847 3212 
Q 6163 2841 6163 2131 
L 6163 0 
L 5038 0 
L 5038 1825 
Q 5041 1866 5042 1909 
Q 5044 1953 5044 2034 
Q 5044 2406 4934 2573 
Q 4825 2741 4581 2741 
Q 4263 2741 4089 2478 
Q 3916 2216 3909 1719 
L 3909 0 
L 2784 0 
L 2784 1825 
Q 2784 2406 2684 2573 
Q 2584 2741 2328 2741 
Q 2006 2741 1831 2477 
Q 1656 2213 1656 1722 
L 1656 0 
L 531 0 
L 531 3500 
L 1656 3500 
L 1656 2988 
Q 1863 3284 2130 3434 
Q 2397 3584 2719 3584 
Q 3081 3584 3359 3409 
Q 3638 3234 3781 2919 
z
" transform="scale(0.015625)"/>
      </defs>
      <use xlink:href="#DejaVuSans-Bold-54"/>
      <use xlink:href="#DejaVuSans-Bold-1ed5" transform="translate(68.212891 0)"/>
      <use xlink:href="#DejaVuSans-Bold-6e" transform="translate(136.914062 0)"/>
      <use xlink:href="#DejaVuSans-Bold-67" transform="translate(208.105469 0)"/>
      <use xlink:href="#DejaVuSans-Bold-20" transform="translate(279.6875 0)"/>
      <use xlink:href="#DejaVuSans-Bold-73" transform="translate(314.501953 0)"/>
      <use xlink:href="#DejaVuSans-Bold-1ed1" transform="translate(374.023438 0)"/>
      <use xlink:href="#DejaVuSans-Bold-20" transform="translate(442.724609 0)"/>
      <use xlink:href="#DejaVuSans-Bold-50" transform="translate(477.539062 0)"/>
      <use xlink:href="#DejaVuSans-Bold-6f" transform="translate(550.830078 0)"/>
      <use xlink:href="#DejaVuSans-Bold-64" transform="translate(619.53125 0)"/>
      <use xlink:href="#DejaVuSans-Bold-20" transform="translate(691.113281 0)"/>
      <use xlink:href="#DejaVuSans-Bold-111" transform="translate(725.927734 0)"/>
      <use xlink:href="#DejaVuSans-Bold-1b0" transform="translate(797.509766 0)"/>
      <use xlink:href="#DejaVuSans-Bold-1ee3" transform="translate(868.701172 0)"/>
      <use xlink:href="#DejaVuSans-Bold-63" transform="translate(937.402344 0)"/>
      <use xlink:href="#DejaVuSans-Bold-20" transform="translate(996.679688 0)"/>
      <use xlink:href="#DejaVuSans-Bold-74" transform="translate(1031.494141 0)"/>
      <use xlink:href="#DejaVuSans-Bold-1ea1" transform="translate(1079.296875 0)"/>
      <use xlink:href="#DejaVuSans-Bold-6f" transform="translate(1146.777344 0)"/>
      <use xlink:href="#DejaVuSans-Bold-20" transform="translate(1215.478516 0)"/>
      <use xlink:href="#DejaVuSans-Bold-74" transform="translate(1250.292969 0)"/>
      <use xlink:href="#DejaVuSans-Bold-68" transform="translate(1298.095703 0)"/>
      <use xlink:href="#DejaVuSans-Bold-ea" transform="translate(1369.287109 0)"/>
      <use xlink:href="#DejaVuSans-Bold-6d" transform="translate(1437.109375 0)"/>
     </g>
    </g>
   </g>
   <g id="patch_7">
    <path d="M 40.369375 526.52 
L 40.369375 124 
" style="fill: none; stroke: #000000; stroke-width: 0.8; stroke-linejoin: miter; stroke-linecap: square"/>
   </g>
   <g id="patch_8">
    <path d="M 571.884375 526.52 
L 571.884375 124 
" style="fill: none; stroke: #000000; stroke-width: 0.8; stroke-linejoin: miter; stroke-linecap: square"/>
   </g>
   <g id="patch_9">
    <path d="M 40.369375 526.52 
L 571.884375 526.52 
" style="fill: none; stroke: #000000; stroke-width: 0.8; stroke-linejoin: miter; stroke-linecap: square"/>
   </g>
   <g id="patch_10">
    <path d="M 40.369375 124 
L 571.884375 124 
" style="fill: none; stroke: #000000; stroke-width: 0.8; stroke-linejoin: miter; stroke-linecap: square"/>
   </g>
   <g id="text_13">
    <!-- +4 Pod -->
    <g transform="translate(343.104933 241.636469) scale(0.15 -0.15)">
     <defs>
      <path id="DejaVuSans-Bold-2b" d="M 3053 4013 
L 3053 2375 
L 4684 2375 
L 4684 1638 
L 3053 1638 
L 3053 0 
L 2309 0 
L 2309 1638 
L 678 1638 
L 678 2375 
L 2309 2375 
L 2309 4013 
L 3053 4013 
z
" transform="scale(0.015625)"/>
      <path id="DejaVuSans-Bold-34" d="M 2356 3675 
L 1038 1722 
L 2356 1722 
L 2356 3675 
z
M 2156 4666 
L 3494 4666 
L 3494 1722 
L 4159 1722 
L 4159 850 
L 3494 850 
L 3494 0 
L 2356 0 
L 2356 850 
L 288 850 
L 288 1881 
L 2156 4666 
z
" transform="scale(0.015625)"/>
     </defs>
     <use xlink:href="#DejaVuSans-Bold-2b"/>
     <use xlink:href="#DejaVuSans-Bold-34" transform="translate(83.789062 0)"/>
     <use xlink:href="#DejaVuSans-Bold-20" transform="translate(153.369141 0)"/>
     <use xlink:href="#DejaVuSans-Bold-50" transform="translate(188.183594 0)"/>
     <use xlink:href="#DejaVuSans-Bold-6f" transform="translate(261.474609 0)"/>
     <use xlink:href="#DejaVuSans-Bold-64" transform="translate(330.175781 0)"/>
    </g>
   </g>
   <g id="text_14">
    <!-- Dịch vụ FRONTEND -->
    <g transform="translate(209.735469 99) scale(0.18 -0.18)">
     <defs>
      <path id="DejaVuSans-Bold-44" d="M 1791 3756 
L 1791 909 
L 2222 909 
Q 2959 909 3348 1275 
Q 3738 1641 3738 2338 
Q 3738 3031 3350 3393 
Q 2963 3756 2222 3756 
L 1791 3756 
z
M 588 4666 
L 1856 4666 
Q 2919 4666 3439 4514 
Q 3959 4363 4331 4000 
Q 4659 3684 4818 3271 
Q 4978 2859 4978 2338 
Q 4978 1809 4818 1395 
Q 4659 981 4331 666 
Q 3956 303 3431 151 
Q 2906 0 1856 0 
L 588 0 
L 588 4666 
z
" transform="scale(0.015625)"/>
      <path id="DejaVuSans-Bold-1ecb" d="M 530 -447 
L 1649 -447 
L 1649 -1359 
L 530 -1359 
L 530 -447 
z
M 538 3500 
L 1656 3500 
L 1656 0 
L 538 0 
L 538 3500 
z
M 538 4863 
L 1656 4863 
L 1656 3950 
L 538 3950 
L 538 4863 
z
" transform="scale(0.015625)"/>
      <path id="DejaVuSans-Bold-76" d="M 97 3500 
L 1216 3500 
L 2088 1081 
L 2956 3500 
L 4078 3500 
L 2700 0 
L 1472 0 
L 97 3500 
z
" transform="scale(0.015625)"/>
      <path id="DejaVuSans-Bold-1ee5" d="M 1698 -447 
L 2817 -447 
L 2817 -1359 
L 1698 -1359 
L 1698 -447 
z
M 500 1363 
L 500 3500 
L 1625 3500 
L 1625 3150 
Q 1625 2866 1622 2436 
Q 1619 2006 1619 1863 
Q 1619 1441 1641 1255 
Q 1663 1069 1716 984 
Q 1784 875 1895 815 
Q 2006 756 2150 756 
Q 2500 756 2700 1025 
Q 2900 1294 2900 1772 
L 2900 3500 
L 4019 3500 
L 4019 0 
L 2900 0 
L 2900 506 
Q 2647 200 2364 54 
Q 2081 -91 1741 -91 
Q 1134 -91 817 281 
Q 500 653 500 1363 
z
" transform="scale(0.015625)"/>
      <path id="DejaVuSans-Bold-46" d="M 588 4666 
L 3834 4666 
L 3834 3756 
L 1791 3756 
L 1791 2888 
L 3713 2888 
L 3713 1978 
L 1791 1978 
L 1791 0 
L 588 0 
L 588 4666 
z
" transform="scale(0.015625)"/>
      <path id="DejaVuSans-Bold-52" d="M 2297 2597 
Q 2675 2597 2839 2737 
Q 3003 2878 3003 3200 
Q 3003 3519 2839 3656 
Q 2675 3794 2297 3794 
L 1791 3794 
L 1791 2597 
L 2297 2597 
z
M 1791 1766 
L 1791 0 
L 588 0 
L 588 4666 
L 2425 4666 
Q 3347 4666 3776 4356 
Q 4206 4047 4206 3378 
Q 4206 2916 3982 2619 
Q 3759 2322 3309 2181 
Q 3556 2125 3751 1926 
Q 3947 1728 4147 1325 
L 4800 0 
L 3519 0 
L 2950 1159 
Q 2778 1509 2601 1637 
Q 2425 1766 2131 1766 
L 1791 1766 
z
" transform="scale(0.015625)"/>
      <path id="DejaVuSans-Bold-4f" d="M 2719 3878 
Q 2169 3878 1866 3472 
Q 1563 3066 1563 2328 
Q 1563 1594 1866 1187 
Q 2169 781 2719 781 
Q 3272 781 3575 1187 
Q 3878 1594 3878 2328 
Q 3878 3066 3575 3472 
Q 3272 3878 2719 3878 
z
M 2719 4750 
Q 3844 4750 4481 4106 
Q 5119 3463 5119 2328 
Q 5119 1197 4481 553 
Q 3844 -91 2719 -91 
Q 1597 -91 958 553 
Q 319 1197 319 2328 
Q 319 3463 958 4106 
Q 1597 4750 2719 4750 
z
" transform="scale(0.015625)"/>
      <path id="DejaVuSans-Bold-4e" d="M 588 4666 
L 1931 4666 
L 3628 1466 
L 3628 4666 
L 4769 4666 
L 4769 0 
L 3425 0 
L 1728 3200 
L 1728 0 
L 588 0 
L 588 4666 
z
" transform="scale(0.015625)"/>
      <path id="DejaVuSans-Bold-45" d="M 588 4666 
L 3834 4666 
L 3834 3756 
L 1791 3756 
L 1791 2888 
L 3713 2888 
L 3713 1978 
L 1791 1978 
L 1791 909 
L 3903 909 
L 3903 0 
L 588 0 
L 588 4666 
z
" transform="scale(0.015625)"/>
     </defs>
     <use xlink:href="#DejaVuSans-Bold-44"/>
     <use xlink:href="#DejaVuSans-Bold-1ecb" transform="translate(83.007812 0)"/>
     <use xlink:href="#DejaVuSans-Bold-63" transform="translate(117.285156 0)"/>
     <use xlink:href="#DejaVuSans-Bold-68" transform="translate(176.5625 0)"/>
     <use xlink:href="#DejaVuSans-Bold-20" transform="translate(247.753906 0)"/>
     <use xlink:href="#DejaVuSans-Bold-76" transform="translate(282.568359 0)"/>
     <use xlink:href="#DejaVuSans-Bold-1ee5" transform="translate(347.753906 0)"/>
     <use xlink:href="#DejaVuSans-Bold-20" transform="translate(418.945312 0)"/>
     <use xlink:href="#DejaVuSans-Bold-46" transform="translate(453.759766 0)"/>
     <use xlink:href="#DejaVuSans-Bold-52" transform="translate(522.070312 0)"/>
     <use xlink:href="#DejaVuSans-Bold-4f" transform="translate(599.072266 0)"/>
     <use xlink:href="#DejaVuSans-Bold-4e" transform="translate(684.082031 0)"/>
     <use xlink:href="#DejaVuSans-Bold-54" transform="translate(767.773438 0)"/>
     <use xlink:href="#DejaVuSans-Bold-45" transform="translate(835.986328 0)"/>
     <use xlink:href="#DejaVuSans-Bold-4e" transform="translate(904.296875 0)"/>
     <use xlink:href="#DejaVuSans-Bold-44" transform="translate(987.988281 0)"/>
    </g>
   </g>
  </g>
  <g id="axes_2">
   <g id="patch_11">
    <path d="M 606.024375 526.52 
L 1137.539375 526.52 
L 1137.539375 124 
L 606.024375 124 
z
" style="fill: #ffffff"/>
   </g>
   <g id="patch_12">
    <path d="M 630.184148 526.52 
L 710.716723 526.52 
L 710.716723 526.52 
L 630.184148 526.52 
z
" clip-path="url(#p7322dc7c8a)" style="fill: #ff7675; opacity: 0.8; stroke: #000000; stroke-linejoin: miter"/>
   </g>
   <g id="patch_13">
    <path d="M 764.405107 526.52 
L 844.937683 526.52 
L 844.937683 526.52 
L 764.405107 526.52 
z
" clip-path="url(#p7322dc7c8a)" style="fill: #fdcb6e; opacity: 0.8; stroke: #000000; stroke-linejoin: miter"/>
   </g>
   <g id="patch_14">
    <path d="M 898.626067 526.52 
L 979.158643 526.52 
L 979.158643 258.173333 
L 898.626067 258.173333 
z
" clip-path="url(#p7322dc7c8a)" style="fill: #74b9ff; opacity: 0.8; stroke: #000000; stroke-linejoin: miter"/>
   </g>
   <g id="patch_15">
    <path d="M 1032.847027 526.52 
L 1113.379602 526.52 
L 1113.379602 526.52 
L 1032.847027 526.52 
z
" clip-path="url(#p7322dc7c8a)" style="fill: #a29bfe; opacity: 0.8; stroke: #000000; stroke-linejoin: miter"/>
   </g>
   <g id="matplotlib.axis_3">
    <g id="xtick_5">
     <g id="line2d_19">
      <g>
       <use xlink:href="#m2967b7a2ba" x="670.450436" y="526.52" style="stroke: #000000; stroke-width: 0.8"/>
      </g>
     </g>
     <g id="text_15">
      <!-- CPU -->
      <g transform="translate(660.284811 541.118437) scale(0.1 -0.1)">
       <use xlink:href="#DejaVuSans-43"/>
       <use xlink:href="#DejaVuSans-50" transform="translate(69.824219 0)"/>
       <use xlink:href="#DejaVuSans-55" transform="translate(130.126953 0)"/>
      </g>
     </g>
    </g>
    <g id="xtick_6">
     <g id="line2d_20">
      <g>
       <use xlink:href="#m2967b7a2ba" x="804.671395" y="526.52" style="stroke: #000000; stroke-width: 0.8"/>
      </g>
     </g>
     <g id="text_16">
      <!-- Memory -->
      <g transform="translate(784.336239 541.118437) scale(0.1 -0.1)">
       <use xlink:href="#DejaVuSans-4d"/>
       <use xlink:href="#DejaVuSans-65" transform="translate(86.279297 0)"/>
       <use xlink:href="#DejaVuSans-6d" transform="translate(147.802734 0)"/>
       <use xlink:href="#DejaVuSans-6f" transform="translate(245.214844 0)"/>
       <use xlink:href="#DejaVuSans-72" transform="translate(306.396484 0)"/>
       <use xlink:href="#DejaVuSans-79" transform="translate(347.509766 0)"/>
      </g>
     </g>
    </g>
    <g id="xtick_7">
     <g id="line2d_21">
      <g>
       <use xlink:href="#m2967b7a2ba" x="938.892355" y="526.52" style="stroke: #000000; stroke-width: 0.8"/>
      </g>
     </g>
     <g id="text_17">
      <!-- RPS -->
      <g transform="translate(929.229074 541.118437) scale(0.1 -0.1)">
       <use xlink:href="#DejaVuSans-52"/>
       <use xlink:href="#DejaVuSans-50" transform="translate(69.482422 0)"/>
       <use xlink:href="#DejaVuSans-53" transform="translate(129.785156 0)"/>
      </g>
     </g>
    </g>
    <g id="xtick_8">
     <g id="line2d_22">
      <g>
       <use xlink:href="#m2967b7a2ba" x="1073.113314" y="526.52" style="stroke: #000000; stroke-width: 0.8"/>
      </g>
     </g>
     <g id="text_18">
      <!-- Error -->
      <g transform="translate(1060.928158 541.118437) scale(0.1 -0.1)">
       <use xlink:href="#DejaVuSans-45"/>
       <use xlink:href="#DejaVuSans-72" transform="translate(63.183594 0)"/>
       <use xlink:href="#DejaVuSans-72" transform="translate(102.546875 0)"/>
       <use xlink:href="#DejaVuSans-6f" transform="translate(141.410156 0)"/>
       <use xlink:href="#DejaVuSans-72" transform="translate(202.591797 0)"/>
      </g>
     </g>
    </g>
   </g>
   <g id="matplotlib.axis_4">
    <g id="ytick_8">
     <g id="line2d_23">
      <path d="M 606.024375 526.52 
L 1137.539375 526.52 
" clip-path="url(#p7322dc7c8a)" style="fill: none; stroke-dasharray: 0.8,1.32; stroke-dashoffset: 0; stroke: #b0b0b0; stroke-opacity: 0.6; stroke-width: 0.8"/>
     </g>
     <g id="line2d_24">
      <g>
       <use xlink:href="#m2381c1dd00" x="606.024375" y="526.52" style="stroke: #000000; stroke-width: 0.8"/>
      </g>
     </g>
    </g>
    <g id="ytick_9">
     <g id="line2d_25">
      <path d="M 606.024375 459.433333 
L 1137.539375 459.433333 
" clip-path="url(#p7322dc7c8a)" style="fill: none; stroke-dasharray: 0.8,1.32; stroke-dashoffset: 0; stroke: #b0b0b0; stroke-opacity: 0.6; stroke-width: 0.8"/>
     </g>
     <g id="line2d_26">
      <g>
       <use xlink:href="#m2381c1dd00" x="606.024375" y="459.433333" style="stroke: #000000; stroke-width: 0.8"/>
      </g>
     </g>
    </g>
    <g id="ytick_10">
     <g id="line2d_27">
      <path d="M 606.024375 392.346667 
L 1137.539375 392.346667 
" clip-path="url(#p7322dc7c8a)" style="fill: none; stroke-dasharray: 0.8,1.32; stroke-dashoffset: 0; stroke: #b0b0b0; stroke-opacity: 0.6; stroke-width: 0.8"/>
     </g>
     <g id="line2d_28">
      <g>
       <use xlink:href="#m2381c1dd00" x="606.024375" y="392.346667" style="stroke: #000000; stroke-width: 0.8"/>
      </g>
     </g>
    </g>
    <g id="ytick_11">
     <g id="line2d_29">
      <path d="M 606.024375 325.26 
L 1137.539375 325.26 
" clip-path="url(#p7322dc7c8a)" style="fill: none; stroke-dasharray: 0.8,1.32; stroke-dashoffset: 0; stroke: #b0b0b0; stroke-opacity: 0.6; stroke-width: 0.8"/>
     </g>
     <g id="line2d_30">
      <g>
       <use xlink:href="#m2381c1dd00" x="606.024375" y="325.26" style="stroke: #000000; stroke-width: 0.8"/>
      </g>
     </g>
    </g>
    <g id="ytick_12">
     <g id="line2d_31">
      <path d="M 606.024375 258.173333 
L 1137.539375 258.173333 
" clip-path="url(#p7322dc7c8a)" style="fill: none; stroke-dasharray: 0.8,1.32; stroke-dashoffset: 0; stroke: #b0b0b0; stroke-opacity: 0.6; stroke-width: 0.8"/>
     </g>
     <g id="line2d_32">
      <g>
       <use xlink:href="#m2381c1dd00" x="606.024375" y="258.173333" style="stroke: #000000; stroke-width: 0.8"/>
      </g>
     </g>
    </g>
    <g id="ytick_13">
     <g id="line2d_33">
      <path d="M 606.024375 191.086667 
L 1137.539375 191.086667 
" clip-path="url(#p7322dc7c8a)" style="fill: none; stroke-dasharray: 0.8,1.32; stroke-dashoffset: 0; stroke: #b0b0b0; stroke-opacity: 0.6; stroke-width: 0.8"/>
     </g>
     <g id="line2d_34">
      <g>
       <use xlink:href="#m2381c1dd00" x="606.024375" y="191.086667" style="stroke: #000000; stroke-width: 0.8"/>
      </g>
     </g>
    </g>
    <g id="ytick_14">
     <g id="line2d_35">
      <path d="M 606.024375 124 
L 1137.539375 124 
" clip-path="url(#p7322dc7c8a)" style="fill: none; stroke-dasharray: 0.8,1.32; stroke-dashoffset: 0; stroke: #b0b0b0; stroke-opacity: 0.6; stroke-width: 0.8"/>
     </g>
     <g id="line2d_36">
      <g>
       <use xlink:href="#m2381c1dd00" x="606.024375" y="124" style="stroke: #000000; stroke-width: 0.8"/>
      </g>
     </g>
    </g>
    <g id="text_19">
     <!-- Tổng số Pod được tạo thêm -->
     <g transform="translate(595.503438 433.150781) rotate(-90) scale(0.14 -0.14)">
      <use xlink:href="#DejaVuSans-Bold-54"/>
      <use xlink:href="#DejaVuSans-Bold-1ed5" transform="translate(68.212891 0)"/>
      <use xlink:href="#DejaVuSans-Bold-6e" transform="translate(136.914062 0)"/>
      <use xlink:href="#DejaVuSans-Bold-67" transform="translate(208.105469 0)"/>
      <use xlink:href="#DejaVuSans-Bold-20" transform="translate(279.6875 0)"/>
      <use xlink:href="#DejaVuSans-Bold-73" transform="translate(314.501953 0)"/>
      <use xlink:href="#DejaVuSans-Bold-1ed1" transform="translate(374.023438 0)"/>
      <use xlink:href="#DejaVuSans-Bold-20" transform="translate(442.724609 0)"/>
      <use xlink:href="#DejaVuSans-Bold-50" transform="translate(477.539062 0)"/>
      <use xlink:href="#DejaVuSans-Bold-6f" transform="translate(550.830078 0)"/>
      <use xlink:href="#DejaVuSans-Bold-64" transform="translate(619.53125 0)"/>
      <use xlink:href="#DejaVuSans-Bold-20" transform="translate(691.113281 0)"/>
      <use xlink:href="#DejaVuSans-Bold-111" transform="translate(725.927734 0)"/>
      <use xlink:href="#DejaVuSans-Bold-1b0" transform="translate(797.509766 0)"/>
      <use xlink:href="#DejaVuSans-Bold-1ee3" transform="translate(868.701172 0)"/>
      <use xlink:href="#DejaVuSans-Bold-63" transform="translate(937.402344 0)"/>
      <use xlink:href="#DejaVuSans-Bold-20" transform="translate(996.679688 0)"/>
      <use xlink:href="#DejaVuSans-Bold-74" transform="translate(1031.494141 0)"/>
      <use xlink:href="#DejaVuSans-Bold-1ea1" transform="translate(1079.296875 0)"/>
      <use xlink:href="#DejaVuSans-Bold-6f" transform="translate(1146.777344 0)"/>
      <use xlink:href="#DejaVuSans-Bold-20" transform="translate(1215.478516 0)"/>
      <use xlink:href="#DejaVuSans-Bold-74" transform="translate(1250.292969 0)"/>
      <use xlink:href="#DejaVuSans-Bold-68" transform="translate(1298.095703 0)"/>
      <use xlink:href="#DejaVuSans-Bold-ea" transform="translate(1369.287109 0)"/>
      <use xlink:href="#DejaVuSans-Bold-6d" transform="translate(1437.109375 0)"/>
     </g>
    </g>
   </g>
   <g id="patch_16">
    <path d="M 606.024375 526.52 
L 606.024375 124 
" style="fill: none; stroke: #000000; stroke-width: 0.8; stroke-linejoin: miter; stroke-linecap: square"/>
   </g>
   <g id="patch_17">
    <path d="M 1137.539375 526.52 
L 1137.539375 124 
" style="fill: none; stroke: #000000; stroke-width: 0.8; stroke-linejoin: miter; stroke-linecap: square"/>
   </g>
   <g id="patch_18">
    <path d="M 606.024375 526.52 
L 1137.539375 526.52 
" style="fill: none; stroke: #000000; stroke-width: 0.8; stroke-linejoin: miter; stroke-linecap: square"/>
   </g>
   <g id="patch_19">
    <path d="M 606.024375 124 
L 1137.539375 124 
" style="fill: none; stroke: #000000; stroke-width: 0.8; stroke-linejoin: miter; stroke-linecap: square"/>
   </g>
   <g id="text_20">
    <!-- +4 Pod -->
    <g transform="translate(908.759933 241.636469) scale(0.15 -0.15)">
     <use xlink:href="#DejaVuSans-Bold-2b"/>
     <use xlink:href="#DejaVuSans-Bold-34" transform="translate(83.789062 0)"/>
     <use xlink:href="#DejaVuSans-Bold-20" transform="translate(153.369141 0)"/>
     <use xlink:href="#DejaVuSans-Bold-50" transform="translate(188.183594 0)"/>
     <use xlink:href="#DejaVuSans-Bold-6f" transform="translate(261.474609 0)"/>
     <use xlink:href="#DejaVuSans-Bold-64" transform="translate(330.175781 0)"/>
    </g>
   </g>
   <g id="text_21">
    <!-- Dịch vụ PRODUCT -->
    <g transform="translate(782.240313 99) scale(0.18 -0.18)">
     <defs>
      <path id="DejaVuSans-Bold-55" d="M 588 4666 
L 1791 4666 
L 1791 1869 
Q 1791 1291 1980 1042 
Q 2169 794 2597 794 
Q 3028 794 3217 1042 
Q 3406 1291 3406 1869 
L 3406 4666 
L 4609 4666 
L 4609 1869 
Q 4609 878 4112 393 
Q 3616 -91 2597 -91 
Q 1581 -91 1084 393 
Q 588 878 588 1869 
L 588 4666 
z
" transform="scale(0.015625)"/>
      <path id="DejaVuSans-Bold-43" d="M 4288 256 
Q 3956 84 3597 -3 
Q 3238 -91 2847 -91 
Q 1681 -91 1000 561 
Q 319 1213 319 2328 
Q 319 3447 1000 4098 
Q 1681 4750 2847 4750 
Q 3238 4750 3597 4662 
Q 3956 4575 4288 4403 
L 4288 3438 
Q 3953 3666 3628 3772 
Q 3303 3878 2944 3878 
Q 2300 3878 1931 3465 
Q 1563 3053 1563 2328 
Q 1563 1606 1931 1193 
Q 2300 781 2944 781 
Q 3303 781 3628 887 
Q 3953 994 4288 1222 
L 4288 256 
z
" transform="scale(0.015625)"/>
     </defs>
     <use xlink:href="#DejaVuSans-Bold-44"/>
     <use xlink:href="#DejaVuSans-Bold-1ecb" transform="translate(83.007812 0)"/>
     <use xlink:href="#DejaVuSans-Bold-63" transform="translate(117.285156 0)"/>
     <use xlink:href="#DejaVuSans-Bold-68" transform="translate(176.5625 0)"/>
     <use xlink:href="#DejaVuSans-Bold-20" transform="translate(247.753906 0)"/>
     <use xlink:href="#DejaVuSans-Bold-76" transform="translate(282.568359 0)"/>
     <use xlink:href="#DejaVuSans-Bold-1ee5" transform="translate(347.753906 0)"/>
     <use xlink:href="#DejaVuSans-Bold-20" transform="translate(418.945312 0)"/>
     <use xlink:href="#DejaVuSans-Bold-50" transform="translate(453.759766 0)"/>
     <use xlink:href="#DejaVuSans-Bold-52" transform="translate(527.050781 0)"/>
     <use xlink:href="#DejaVuSans-Bold-4f" transform="translate(604.052734 0)"/>
     <use xlink:href="#DejaVuSans-Bold-44" transform="translate(689.0625 0)"/>
     <use xlink:href="#DejaVuSans-Bold-55" transform="translate(772.070312 0)"/>
     <use xlink:href="#DejaVuSans-Bold-43" transform="translate(853.271484 0)"/>
     <use xlink:href="#DejaVuSans-Bold-54" transform="translate(926.660156 0)"/>
    </g>
   </g>
  </g>
  <g id="text_22">
   <!-- ĐÁNH GIÁ TRỌNG SỐ ĐÓNG GÓP THỰC TẾ CỦA CÁC EVENT TRIGGER (KEDA) -->
   <g transform="translate(107.26625 30.413437) scale(0.22 -0.22)">
    <defs>
     <path id="DejaVuSans-Bold-110" d="M 1850 3756 
L 1850 2753 
L 2584 2753 
L 2584 1941 
L 1850 1941 
L 1850 909 
L 2278 909 
Q 3016 909 3405 1275 
Q 3794 1641 3794 2338 
Q 3794 3031 3406 3393 
Q 3019 3756 2278 3756 
L 1850 3756 
z
M 647 4666 
L 1913 4666 
Q 2978 4666 3497 4514 
Q 4016 4363 4391 4000 
Q 4716 3684 4877 3271 
Q 5038 2859 5038 2338 
Q 5038 1809 4877 1395 
Q 4716 981 4391 666 
Q 4013 303 3488 151 
Q 2963 0 1913 0 
L 647 0 
L 647 1941 
L 103 1941 
L 103 2753 
L 647 2753 
L 647 4666 
z
" transform="scale(0.015625)"/>
     <path id="DejaVuSans-Bold-c1" d="M 3419 850 
L 1538 850 
L 1241 0 
L 31 0 
L 1759 4666 
L 3194 4666 
L 4922 0 
L 3713 0 
L 3419 850 
z
M 1838 1716 
L 3116 1716 
L 2478 3572 
L 1838 1716 
z
M 2559 5921 
L 3444 5921 
L 2553 5096 
L 1941 5096 
L 2559 5921 
z
" transform="scale(0.015625)"/>
     <path id="DejaVuSans-Bold-48" d="M 588 4666 
L 1791 4666 
L 1791 2888 
L 3566 2888 
L 3566 4666 
L 4769 4666 
L 4769 0 
L 3566 0 
L 3566 1978 
L 1791 1978 
L 1791 0 
L 588 0 
L 588 4666 
z
" transform="scale(0.015625)"/>
     <path id="DejaVuSans-Bold-47" d="M 4781 347 
Q 4331 128 3847 18 
Q 3363 -91 2847 -91 
Q 1681 -91 1000 561 
Q 319 1213 319 2328 
Q 319 3456 1012 4103 
Q 1706 4750 2913 4750 
Q 3378 4750 3804 4662 
Q 4231 4575 4609 4403 
L 4609 3438 
Q 4219 3659 3833 3768 
Q 3447 3878 3059 3878 
Q 2341 3878 1952 3476 
Q 1563 3075 1563 2328 
Q 1563 1588 1938 1184 
Q 2313 781 3003 781 
Q 3191 781 3352 804 
Q 3513 828 3641 878 
L 3641 1784 
L 2906 1784 
L 2906 2591 
L 4781 2591 
L 4781 347 
z
" transform="scale(0.015625)"/>
     <path id="DejaVuSans-Bold-49" d="M 588 4666 
L 1791 4666 
L 1791 0 
L 588 0 
L 588 4666 
z
" transform="scale(0.015625)"/>
     <path id="DejaVuSans-Bold-1ecc" d="M 2154 -447 
L 3273 -447 
L 3273 -1359 
L 2154 -1359 
L 2154 -447 
z
M 2719 3878 
Q 2169 3878 1866 3472 
Q 1563 3066 1563 2328 
Q 1563 1594 1866 1187 
Q 2169 781 2719 781 
Q 3272 781 3575 1187 
Q 3878 1594 3878 2328 
Q 3878 3066 3575 3472 
Q 3272 3878 2719 3878 
z
M 2719 4750 
Q 3844 4750 4481 4106 
Q 5119 3463 5119 2328 
Q 5119 1197 4481 553 
Q 3844 -91 2719 -91 
Q 1597 -91 958 553 
Q 319 1197 319 2328 
Q 319 3463 958 4106 
Q 1597 4750 2719 4750 
z
" transform="scale(0.015625)"/>
     <path id="DejaVuSans-Bold-53" d="M 3834 4519 
L 3834 3531 
Q 3450 3703 3084 3790 
Q 2719 3878 2394 3878 
Q 1963 3878 1756 3759 
Q 1550 3641 1550 3391 
Q 1550 3203 1689 3098 
Q 1828 2994 2194 2919 
L 2706 2816 
Q 3484 2659 3812 2340 
Q 4141 2022 4141 1434 
Q 4141 663 3683 286 
Q 3225 -91 2284 -91 
Q 1841 -91 1394 -6 
Q 947 78 500 244 
L 500 1259 
Q 947 1022 1364 901 
Q 1781 781 2169 781 
Q 2563 781 2772 912 
Q 2981 1044 2981 1288 
Q 2981 1506 2839 1625 
Q 2697 1744 2272 1838 
L 1806 1941 
Q 1106 2091 782 2419 
Q 459 2747 459 3303 
Q 459 4000 909 4375 
Q 1359 4750 2203 4750 
Q 2588 4750 2994 4692 
Q 3400 4634 3834 4519 
z
" transform="scale(0.015625)"/>
     <path id="DejaVuSans-Bold-1ed0" d="M 2719 3878 
Q 2169 3878 1866 3472 
Q 1563 3066 1563 2328 
Q 1563 1594 1866 1187 
Q 2169 781 2719 781 
Q 3272 781 3575 1187 
Q 3878 1594 3878 2328 
Q 3878 3066 3575 3472 
Q 3272 3878 2719 3878 
z
M 2719 4750 
Q 3844 4750 4481 4106 
Q 5119 3463 5119 2328 
Q 5119 1197 4481 553 
Q 3844 -91 2719 -91 
Q 1597 -91 958 553 
Q 319 1197 319 2328 
Q 319 3463 958 4106 
Q 1597 4750 2719 4750 
z
M 2263 5921 
L 3225 5921 
L 3922 5096 
L 3366 5096 
L 2744 5599 
L 2122 5096 
L 1566 5096 
L 2263 5921 
z
M 4023 6753 
L 4908 6753 
L 4017 5928 
L 3405 5928 
L 4023 6753 
z
" transform="scale(0.015625)"/>
     <path id="DejaVuSans-Bold-d3" d="M 2719 3878 
Q 2169 3878 1866 3472 
Q 1563 3066 1563 2328 
Q 1563 1594 1866 1187 
Q 2169 781 2719 781 
Q 3272 781 3575 1187 
Q 3878 1594 3878 2328 
Q 3878 3066 3575 3472 
Q 3272 3878 2719 3878 
z
M 2719 4750 
Q 3844 4750 4481 4106 
Q 5119 3463 5119 2328 
Q 5119 1197 4481 553 
Q 3844 -91 2719 -91 
Q 1597 -91 958 553 
Q 319 1197 319 2328 
Q 319 3463 958 4106 
Q 1597 4750 2719 4750 
z
M 2799 5921 
L 3684 5921 
L 2793 5096 
L 2181 5096 
L 2799 5921 
z
" transform="scale(0.015625)"/>
     <path id="DejaVuSans-Bold-1ef0" d="M 2034 -447 
L 3153 -447 
L 3153 -1359 
L 2034 -1359 
L 2034 -447 
z
M 4081 3869 
L 4081 4310 
Q 4291 4154 4405 4094 
Q 4519 4035 4600 4035 
Q 4722 4035 4798 4127 
Q 4875 4219 4875 4373 
Q 4875 4494 4851 4614 
Q 4828 4735 4778 4860 
L 5266 4860 
Q 5300 4688 5317 4541 
Q 5334 4394 5334 4266 
Q 5334 3907 5190 3715 
Q 5047 3523 4778 3523 
Q 4613 3523 4442 3607 
Q 4272 3691 4081 3869 
z
M 588 4666 
L 1791 4666 
L 1791 1869 
Q 1791 1291 1980 1042 
Q 2169 794 2597 794 
Q 3028 794 3217 1042 
Q 3406 1291 3406 1869 
L 3406 4666 
L 4609 4666 
L 4609 1869 
Q 4609 878 4112 393 
Q 3616 -91 2597 -91 
Q 1581 -91 1084 393 
Q 588 878 588 1869 
L 588 4666 
z
" transform="scale(0.015625)"/>
     <path id="DejaVuSans-Bold-1ebe" d="M 588 4666 
L 3834 4666 
L 3834 3756 
L 1791 3756 
L 1791 2888 
L 3713 2888 
L 3713 1978 
L 1791 1978 
L 1791 909 
L 3903 909 
L 3903 0 
L 588 0 
L 588 4666 
z
M 3495 6753 
L 4380 6753 
L 3489 5928 
L 2877 5928 
L 3495 6753 
z
M 1735 5921 
L 2697 5921 
L 3394 5096 
L 2838 5096 
L 2216 5599 
L 1594 5096 
L 1038 5096 
L 1735 5921 
z
" transform="scale(0.015625)"/>
     <path id="DejaVuSans-Bold-1ee6" d="M 2878 5096 
L 2369 5096 
L 2369 5249 
Q 2369 5340 2441 5455 
Q 2491 5536 2663 5671 
L 2763 5749 
Q 2825 5799 2875 5858 
Q 2950 5940 2953 6008 
Q 2953 6127 2816 6180 
Q 2697 6227 2494 6227 
Q 2381 6227 2243 6199 
Q 2106 6171 1834 6061 
L 1834 6424 
Q 2084 6493 2245 6521 
Q 2406 6549 2559 6549 
Q 2969 6549 3194 6402 
Q 3419 6255 3419 5977 
Q 3419 5833 3350 5721 
Q 3278 5599 3125 5486 
L 3025 5411 
Q 2931 5343 2903 5299 
Q 2878 5261 2878 5221 
L 2878 5096 
z
M 588 4666 
L 1791 4666 
L 1791 1869 
Q 1791 1291 1980 1042 
Q 2169 794 2597 794 
Q 3028 794 3217 1042 
Q 3406 1291 3406 1869 
L 3406 4666 
L 4609 4666 
L 4609 1869 
Q 4609 878 4112 393 
Q 3616 -91 2597 -91 
Q 1581 -91 1084 393 
Q 588 878 588 1869 
L 588 4666 
z
" transform="scale(0.015625)"/>
     <path id="DejaVuSans-Bold-41" d="M 3419 850 
L 1538 850 
L 1241 0 
L 31 0 
L 1759 4666 
L 3194 4666 
L 4922 0 
L 3713 0 
L 3419 850 
z
M 1838 1716 
L 3116 1716 
L 2478 3572 
L 1838 1716 
z
" transform="scale(0.015625)"/>
     <path id="DejaVuSans-Bold-56" d="M 31 4666 
L 1241 4666 
L 2478 1222 
L 3713 4666 
L 4922 4666 
L 3194 0 
L 1759 0 
L 31 4666 
z
" transform="scale(0.015625)"/>
     <path id="DejaVuSans-Bold-28" d="M 2413 -844 
L 1484 -844 
Q 1006 -72 778 623 
Q 550 1319 550 2003 
Q 550 2688 779 3389 
Q 1009 4091 1484 4856 
L 2413 4856 
Q 2013 4116 1813 3408 
Q 1613 2700 1613 2009 
Q 1613 1319 1811 609 
Q 2009 -100 2413 -844 
z
" transform="scale(0.015625)"/>
     <path id="DejaVuSans-Bold-4b" d="M 588 4666 
L 1791 4666 
L 1791 2963 
L 3525 4666 
L 4922 4666 
L 2675 2456 
L 5153 0 
L 3647 0 
L 1791 1838 
L 1791 0 
L 588 0 
L 588 4666 
z
" transform="scale(0.015625)"/>
     <path id="DejaVuSans-Bold-29" d="M 513 -844 
Q 913 -100 1113 609 
Q 1313 1319 1313 2009 
Q 1313 2700 1113 3408 
Q 913 4116 513 4856 
L 1441 4856 
Q 1916 4091 2145 3389 
Q 2375 2688 2375 2003 
Q 2375 1319 2147 623 
Q 1919 -72 1441 -844 
L 513 -844 
z
" transform="scale(0.015625)"/>
    </defs>
    <use xlink:href="#DejaVuSans-Bold-110"/>
    <use xlink:href="#DejaVuSans-Bold-c1" transform="translate(83.789062 0)"/>
    <use xlink:href="#DejaVuSans-Bold-4e" transform="translate(161.181641 0)"/>
    <use xlink:href="#DejaVuSans-Bold-48" transform="translate(244.873047 0)"/>
    <use xlink:href="#DejaVuSans-Bold-20" transform="translate(328.564453 0)"/>
    <use xlink:href="#DejaVuSans-Bold-47" transform="translate(363.378906 0)"/>
    <use xlink:href="#DejaVuSans-Bold-49" transform="translate(445.458984 0)"/>
    <use xlink:href="#DejaVuSans-Bold-c1" transform="translate(482.666016 0)"/>
    <use xlink:href="#DejaVuSans-Bold-20" transform="translate(560.058594 0)"/>
    <use xlink:href="#DejaVuSans-Bold-54" transform="translate(594.873047 0)"/>
    <use xlink:href="#DejaVuSans-Bold-52" transform="translate(663.085938 0)"/>
    <use xlink:href="#DejaVuSans-Bold-1ecc" transform="translate(740.087891 0)"/>
    <use xlink:href="#DejaVuSans-Bold-4e" transform="translate(825.097656 0)"/>
    <use xlink:href="#DejaVuSans-Bold-47" transform="translate(908.789062 0)"/>
    <use xlink:href="#DejaVuSans-Bold-20" transform="translate(990.869141 0)"/>
    <use xlink:href="#DejaVuSans-Bold-53" transform="translate(1025.683594 0)"/>
    <use xlink:href="#DejaVuSans-Bold-1ed0" transform="translate(1097.705078 0)"/>
    <use xlink:href="#DejaVuSans-Bold-20" transform="translate(1182.714844 0)"/>
    <use xlink:href="#DejaVuSans-Bold-110" transform="translate(1217.529297 0)"/>
    <use xlink:href="#DejaVuSans-Bold-d3" transform="translate(1301.318359 0)"/>
    <use xlink:href="#DejaVuSans-Bold-4e" transform="translate(1386.328125 0)"/>
    <use xlink:href="#DejaVuSans-Bold-47" transform="translate(1470.019531 0)"/>
    <use xlink:href="#DejaVuSans-Bold-20" transform="translate(1552.099609 0)"/>
    <use xlink:href="#DejaVuSans-Bold-47" transform="translate(1586.914062 0)"/>
    <use xlink:href="#DejaVuSans-Bold-d3" transform="translate(1668.994141 0)"/>
    <use xlink:href="#DejaVuSans-Bold-50" transform="translate(1754.003906 0)"/>
    <use xlink:href="#DejaVuSans-Bold-20" transform="translate(1827.294922 0)"/>
    <use xlink:href="#DejaVuSans-Bold-54" transform="translate(1862.109375 0)"/>
    <use xlink:href="#DejaVuSans-Bold-48" transform="translate(1930.322266 0)"/>
    <use xlink:href="#DejaVuSans-Bold-1ef0" transform="translate(2014.013672 0)"/>
    <use xlink:href="#DejaVuSans-Bold-43" transform="translate(2097.558594 0)"/>
    <use xlink:href="#DejaVuSans-Bold-20" transform="translate(2170.947266 0)"/>
    <use xlink:href="#DejaVuSans-Bold-54" transform="translate(2205.761719 0)"/>
    <use xlink:href="#DejaVuSans-Bold-1ebe" transform="translate(2273.974609 0)"/>
    <use xlink:href="#DejaVuSans-Bold-20" transform="translate(2342.285156 0)"/>
    <use xlink:href="#DejaVuSans-Bold-43" transform="translate(2377.099609 0)"/>
    <use xlink:href="#DejaVuSans-Bold-1ee6" transform="translate(2450.488281 0)"/>
    <use xlink:href="#DejaVuSans-Bold-41" transform="translate(2531.689453 0)"/>
    <use xlink:href="#DejaVuSans-Bold-20" transform="translate(2609.082031 0)"/>
    <use xlink:href="#DejaVuSans-Bold-43" transform="translate(2643.896484 0)"/>
    <use xlink:href="#DejaVuSans-Bold-c1" transform="translate(2717.285156 0)"/>
    <use xlink:href="#DejaVuSans-Bold-43" transform="translate(2794.677734 0)"/>
    <use xlink:href="#DejaVuSans-Bold-20" transform="translate(2868.066406 0)"/>
    <use xlink:href="#DejaVuSans-Bold-45" transform="translate(2902.880859 0)"/>
    <use xlink:href="#DejaVuSans-Bold-56" transform="translate(2971.191406 0)"/>
    <use xlink:href="#DejaVuSans-Bold-45" transform="translate(3048.583984 0)"/>
    <use xlink:href="#DejaVuSans-Bold-4e" transform="translate(3116.894531 0)"/>
    <use xlink:href="#DejaVuSans-Bold-54" transform="translate(3200.585938 0)"/>
    <use xlink:href="#DejaVuSans-Bold-20" transform="translate(3268.798828 0)"/>
    <use xlink:href="#DejaVuSans-Bold-54" transform="translate(3303.613281 0)"/>
    <use xlink:href="#DejaVuSans-Bold-52" transform="translate(3371.826172 0)"/>
    <use xlink:href="#DejaVuSans-Bold-49" transform="translate(3448.828125 0)"/>
    <use xlink:href="#DejaVuSans-Bold-47" transform="translate(3486.035156 0)"/>
    <use xlink:href="#DejaVuSans-Bold-47" transform="translate(3568.115234 0)"/>
    <use xlink:href="#DejaVuSans-Bold-45" transform="translate(3650.195312 0)"/>
    <use xlink:href="#DejaVuSans-Bold-52" transform="translate(3718.505859 0)"/>
    <use xlink:href="#DejaVuSans-Bold-20" transform="translate(3795.507812 0)"/>
    <use xlink:href="#DejaVuSans-Bold-28" transform="translate(3830.322266 0)"/>
    <use xlink:href="#DejaVuSans-Bold-4b" transform="translate(3876.025391 0)"/>
    <use xlink:href="#DejaVuSans-Bold-45" transform="translate(3953.515625 0)"/>
    <use xlink:href="#DejaVuSans-Bold-44" transform="translate(4021.826172 0)"/>
    <use xlink:href="#DejaVuSans-Bold-41" transform="translate(4104.833984 0)"/>
    <use xlink:href="#DejaVuSans-Bold-29" transform="translate(4182.226562 0)"/>
   </g>
  </g>
 </g>
 <defs>
  <clipPath id="pabeb1a9d36">
   <rect x="40.369375" y="124" width="531.515" height="402.52"/>
  </clipPath>
  <clipPath id="p7322dc7c8a">
   <rect x="606.024375" y="124" width="531.515" height="402.52"/>
  </clipPath>
 </defs>
</svg>
